nColumns=19
nRows=31
DataType=double
version=3
OpenSimVersion=4.1
endheader
time	ground_force_calcn_r_vx	ground_force_calcn_r_vy	ground_force_calcn_r_vz	ground_force_calcn_r_px	ground_force_calcn_r_py	ground_force_calcn_r_pz	ground_force_calcn_r_mx	ground_force_calcn_r_my	ground_force_calcn_r_mz	ground_force_calcn_l_vx	ground_force_calcn_l_vy	ground_force_calcn_l_vz	ground_force_calcn_l_px	ground_force_calcn_l_py	ground_force_calcn_l_pz	ground_force_calcn_l_mx	ground_force_calcn_l_my	ground_force_calcn_l_mz
0	0.00847327	399.535	-26.5564	-0.228029	0	-0.451136	-3.35532e-05	-1.58211	0.105161	0.100093	216.612	29.8958	-0.213613	0	-0.772198	0.000528496	1.14372	0.157852
0.01	0.0752857	399.447	-26.3497	-0.228049	0	-0.45109	-0.000301171	-1.59793	0.105408	0.0355484	217.273	30.0553	-0.213292	0	-0.772395	0.000187634	1.14683	0.15864
0.02	0.148549	399.234	-26.1019	-0.228075	0	-0.451053	-0.000601055	-1.61536	0.105613	-0.0713908	218.082	30.242	-0.212855	0	-0.772605	-0.000376729	1.15082	0.159587
0.03	0.22849	398.863	-25.8111	-0.228107	0	-0.451029	-0.000936153	-1.63419	0.105751	-0.228138	219.047	30.4566	-0.212285	0	-0.772821	-0.00120403	1.15606	0.16074
0.04	0.316199	398.304	-25.4762	-0.228146	0	-0.451021	-0.00131319	-1.65417	0.105804	-0.441772	220.175	30.6997	-0.21157	0	-0.773042	-0.00233341	1.16295	0.162154
0.05	0.412868	397.53	-25.0972	-0.228194	0	-0.451028	-0.00173959	-1.67497	0.105746	-0.71959	221.469	30.9712	-0.210704	0	-0.773269	-0.00380786	1.17195	0.16389
0.06	0.519829	396.515	-24.6757	-0.228252	0	-0.451051	-0.00222349	-1.69603	0.105546	-1.06882	222.923	31.27	-0.209679	0	-0.773505	-0.00567448	1.18353	0.166017
0.07	0.638811	395.233	-24.214	-0.228324	0	-0.451093	-0.00277443	-1.71654	0.105164	-1.49558	224.524	31.5942	-0.208495	0	-0.773749	-0.00798195	1.19829	0.168619
0.08	0.771579	393.659	-23.7156	-0.228413	0	-0.451151	-0.00340142	-1.7354	0.104548	-2.00361	226.248	31.9414	-0.207157	0	-0.774004	-0.0107758	1.21681	0.171787
0.09	0.919838	391.769	-23.1856	-0.228527	0	-0.451225	-0.0041119	-1.7513	0.103645	-2.59306	228.062	32.3092	-0.205677	0	-0.774271	-0.0140948	1.23965	0.17562
0.1	1.08514	389.545	-22.6317	-0.228671	0	-0.451314	-0.0049108	-1.76288	0.102419	-3.26006	229.927	32.6961	-0.204069	0	-0.774549	-0.0179697	1.26737	0.180223
0.11	1.26796	386.973	-22.0641	-0.228852	0	-0.451414	-0.00579545	-1.76873	0.100848	-3.99721	231.794	33.1006	-0.202357	0	-0.774841	-0.0224239	1.30034	0.185691
0.12	1.46705	384.043	-21.4946	-0.22908	0	-0.451522	-0.00675166	-1.76744	0.0989227	-4.79481	233.61	33.5207	-0.20057	0	-0.775146	-0.0274738	1.33856	0.19207
0.13	1.67912	380.754	-20.9356	-0.229358	0	-0.451635	-0.00775168	-1.75776	0.0966496	-5.64085	235.312	33.9533	-0.198741	0	-0.775464	-0.0331174	1.38151	0.199339
0.14	1.89833	377.11	-20.3995	-0.229694	0	-0.451753	-0.00875194	-1.73861	0.0940487	-6.52055	236.84	34.3937	-0.196907	0	-0.775796	-0.0393186	1.42814	0.207392
0.15	2.11605	373.13	-19.8986	-0.230089	0	-0.451871	-0.00969331	-1.70925	0.0911523	-7.41649	238.136	34.8359	-0.195106	0	-0.77614	-0.0459982	1.47695	0.216057
0.16	2.32109	368.844	-19.4438	-0.230545	0	-0.451986	-0.010505	-1.66934	0.0880003	-8.31003	239.151	35.272	-0.193373	0	-0.776491	-0.0530365	1.52631	0.225114
0.17	2.50085	364.305	-19.0443	-0.231064	0	-0.452099	-0.0111144	-1.61906	0.0846375	-9.18261	239.842	35.6913	-0.191741	0	-0.776843	-0.060288	1.57467	0.23433
0.18	2.6427	359.581	-18.7069	-0.231641	0	-0.452208	-0.011458	-1.55904	0.0811078	-10.0166	240.172	36.0798	-0.190239	0	-0.777192	-0.0675916	1.62066	0.243464
0.19	2.73532	354.761	-18.4362	-0.232276	0	-0.452313	-0.0114908	-1.49032	0.0774488	-10.7954	240.102	36.4196	-0.188889	0	-0.77753	-0.0747794	1.66318	0.252278
0.2	2.76975	349.951	-18.2355	-0.232965	0	-0.452413	-0.0111923	-1.41412	0.0736882	-11.5024	239.592	36.6897	-0.187704	0	-0.777851	-0.081687	1.70152	0.260561
0.21	2.73961	345.264	-18.1069	-0.233703	0	-0.452512	-0.0105675	-1.33179	0.0698438	-12.1209	238.59	36.8674	-0.18669	0	-0.778148	-0.0881589	1.73534	0.268148
0.22	2.64191	340.818	-18.0522	-0.234486	0	-0.45261	-0.00964846	-1.24469	0.065928	-12.6337	237.041	36.9296	-0.185846	0	-0.778419	-0.0940512	1.76465	0.274922
0.23	2.47875	336.723	-18.0715	-0.235308	0	-0.452709	-0.00849694	-1.15425	0.0619477	-13.0254	234.886	36.855	-0.185165	0	-0.778662	-0.0992529	1.78982	0.280834
0.24	2.25984	333.076	-18.1623	-0.236164	0	-0.452813	-0.00720475	-1.0619	0.0579045	-13.2853	232.063	36.6248	-0.184636	0	-0.778878	-0.103705	1.81149	0.285894
0.25	2.0035	329.963	-18.319	-0.237047	0	-0.452923	-0.00588436	-0.969111	0.0538035	-13.4104	228.51	36.2243	-0.184247	0	-0.779067	-0.107406	1.83018	0.290127
0.26	1.73429	327.456	-18.5345	-0.237957	0	-0.45304	-0.00464699	-0.877409	0.0496627	-13.4068	224.165	35.643	-0.183973	0	-0.779234	-0.110417	1.8462	0.293553
0.27	1.47922	325.617	-18.8025	-0.23889	0	-0.453165	-0.00358101	-0.788276	0.0455183	-13.2902	218.971	34.8763	-0.183791	0	-0.77938	-0.112864	1.85956	0.296179
0.28	1.26554	324.5	-19.1184	-0.239842	0	-0.453296	-0.00274177	-0.703026	0.0414198	-13.0852	212.884	33.9253	-0.183669	0	-0.779509	-0.114939	1.86994	0.297995
0.29	1.12039	324.146	-19.4796	-0.240811	0	-0.453432	-0.00215241	-0.622727	0.0374229	-12.8237	205.882	32.7986	-0.183575	0	-0.779629	-0.116901	1.87681	0.298991
0.3	1.07128	324.573	-19.8845	-0.241792	0	-0.45357	-0.0018093	-0.548179	0.0335833	-12.5403	197.982	31.5127	-0.183472	0	-0.779743	-0.11905	1.87951	0.299161
